<svg xmlns="http://www.w3.org/2000/svg" viewBox="0 0 763.6 641.49"><defs><style>.cls-1{fill:#0071bc;}</style></defs><g id="Camada_2" data-name="Camada 2"><g id="Camada_1-2" data-name="Camada 1"><path class="cls-1" d="M248.34,44.28A43.88,43.88,0,0,0,206.72.52c-25.15-1.26-46,19.32-46,44.5V235.36h29V117.45h29a29.73,29.73,0,0,0,29.73-29.73ZM189.65,88.49h0V44.7c0-8.69,7.26-15.86,15.93-15.24a14.89,14.89,0,0,1,13.8,14.82V58.76A29.73,29.73,0,0,1,189.65,88.49Z"/><path class="cls-1" d="M602.53,43.82A43.87,43.87,0,0,0,558.28,0c-24.13.24-43.39,20.25-43.39,44.38V205.63a29.73,29.73,0,0,0,29.73,29.73h57.91ZM573.58,206.4h0a29.73,29.73,0,0,1-29.73-29.72V44.16A15.14,15.14,0,0,1,559,29a14.88,14.88,0,0,1,14.61,14.86Z"/><path class="cls-1" d="M159.77,329a63.25,63.25,0,0,0-63.26-63.25H72.12V472.57a29,29,0,0,0,29,29h0l88.41-.08V403.64A109,109,0,0,0,159.77,329Zm-58.69-34.29h0a29.73,29.73,0,0,1,29.73,29.72H101.08ZM160.54,472.5H130.06a29,29,0,0,1-29-29V353.35h41.59a79.92,79.92,0,0,1,17.87,50.29Z"/><path class="cls-1" d="M219.45,206.56v29.26h14.48a73.7,73.7,0,0,0,73.71-73.7V146.64h29.73v88.88h28.95V124.24a65.09,65.09,0,0,0-65.09-65.09H278.68v103a44.82,44.82,0,0,1-30.27,42.34V177.6h0A29,29,0,0,0,219.45,206.56Zm117.32-88.88H307.64v-29A36.21,36.21,0,0,1,336.77,117.68Z"/><path class="cls-1" d="M455.76,117.53h-15.5v29.73h15.25v59.3H425.86V124.24A36.13,36.13,0,0,1,462,88.11h0a21.86,21.86,0,0,0,21.86-21.86v-7.1H462a65.09,65.09,0,0,0-65.09,65.09V235.52h87.57V146.23A28.7,28.7,0,0,0,455.76,117.53Z"/><path class="cls-1" d="M677.09,265.71a103,103,0,0,0-103,103v132.7h29V368.68a74.4,74.4,0,0,1,1.5-14.87h58V501.53h0a29,29,0,0,0,29-29V265.71Zm-59.61,59.15a74.1,74.1,0,0,1,45.13-28.77v28.77Z"/><path class="cls-1" d="M219.76,441.92h29V353.35h41.6a80,80,0,0,1,17.86,50.29v38.28h29V403.64A109,109,0,0,0,307.41,329V302.09c0-17.33-13.16-32.83-29.41-36.48l-58.7-.06a29,29,0,0,0-29,29h29.42Zm29-147.25H271a7.43,7.43,0,0,1,7.43,7.42v22.3H248.72Z"/><path class="cls-1" d="M485.08,413.58H396.36V353.81h29.5a29,29,0,0,0,29-28.95H396.36V302.09a7.43,7.43,0,0,1,7.43-7.42h51v-29h-51a36.38,36.38,0,0,0-36.39,36.38V442.54h88.73a29,29,0,0,0,28.95-29Z"/><path class="cls-1" d="M485.16,294.51H515V436.45a36.28,36.28,0,0,1-36.28,36.28H247a29,29,0,0,0-29,29h260.7a65.23,65.23,0,0,0,65.23-65.24V294.51h.93a29,29,0,0,0,29-29H485.16Z"/><path class="cls-1" d="M706.08,561.44v58.1A57.52,57.52,0,0,0,763.6,562v-.58Z"/><path class="cls-1" d="M0,562a57.51,57.51,0,0,0,57.51,57.52v-58.1H0Z"/><path class="cls-1" d="M471.93,564.07a24.36,24.36,0,0,0,0-2.85c-.24-4.21-2.47-6.33-6.68-6.33h-4.1v15.23h4.1Q471.55,570.12,471.93,564.07Z"/><path class="cls-1" d="M209.91,558.4c0-2.33-1.32-3.51-4-3.51H200.7v7h5C208.52,561.88,209.91,560.73,209.91,558.4Z"/><path class="cls-1" d="M569.79,558.54c0-2.44-1.36-3.65-4.07-3.65h-5v7.3h4.9C568.39,562.19,569.79,561,569.79,558.54Z"/><path class="cls-1" d="M276.7,558.54c0-2.44-1.35-3.65-4.07-3.65h-5v7.3h4.91Q276.7,562.19,276.7,558.54Z"/><path class="cls-1" d="M295.59,555.2a.54.54,0,0,0-.55-.45.55.55,0,0,0-.59.45l-2.86,8.31h6.82Z"/><path class="cls-1" d="M347.43,570.61a6,6,0,0,0,6.05-5.88,32.91,32.91,0,0,0,0-4.45,6.23,6.23,0,0,0-1.91-4.18,6.12,6.12,0,0,0-8.32,0,6.12,6.12,0,0,0-1.84,4.18,33,33,0,0,0,0,4.45C341.69,568.21,344.09,570.61,347.43,570.61Z"/><path class="cls-1" d="M380,564.07a26.67,26.67,0,0,0,0-2.85c-.25-4.21-2.47-6.33-6.68-6.33h-4.11v15.23h4.11C377.55,570.12,379.78,568.11,380,564.07Z"/><path class="cls-1" d="M652,555.2a.55.55,0,0,0-.55-.45.55.55,0,0,0-.59.45L648,563.51h6.82Z"/><path class="cls-1" d="M71.91,531.2v59.59l619.78-.49V530.72Zm42.86,43.58H103.15a2.66,2.66,0,0,1-2.78-2.78V552.52a2.43,2.43,0,0,1,2.4-2.43,2.36,2.36,0,0,1,2.37,2.43v17.6h9.63a2.48,2.48,0,0,1,2.4,2.37A2.31,2.31,0,0,1,114.77,574.78Zm27.06.07a2.26,2.26,0,0,1-2.19-1.49l-1.91-5.6H128l-1.91,5.6a2.43,2.43,0,0,1-2.23,1.53,2.36,2.36,0,0,1-2.33-2.44,2.16,2.16,0,0,1,.14-.83l6.61-18.37a4.72,4.72,0,0,1,4.59-3.37,4.56,4.56,0,0,1,4.63,3.37l6.54,18.37a1.77,1.77,0,0,1,.14.8A2.37,2.37,0,0,1,141.83,574.85Zm22.58-.07H151.89c-2.19,0-3.51-1.28-3.51-3.09a4.15,4.15,0,0,1,1-2.61l10.85-14.16H151a2.42,2.42,0,0,1-2.4-2.36,2.3,2.3,0,0,1,2.4-2.33h12a3,3,0,0,1,3.34,3,4.63,4.63,0,0,1-1.15,2.78l-10.79,14.12h10.09a2.42,2.42,0,0,1,2.4,2.37A2.31,2.31,0,0,1,164.41,574.78Zm22.89,0H175.75a3.28,3.28,0,0,1-3.44-3.44v-17.7a3.26,3.26,0,0,1,3.44-3.41h11.48a2.24,2.24,0,0,1,2.3,2.26,2.37,2.37,0,0,1-2.3,2.29H177.07v5.5h9.75a2.1,2.1,0,0,1,2.15,2.16,2.25,2.25,0,0,1-2.15,2.19h-9.75v5.6H187.3a2.33,2.33,0,0,1,2.3,2.26A2.27,2.27,0,0,1,187.3,574.78Zm27.28-.52a2.43,2.43,0,0,1-3.45,0l-5.53-6.88a2.25,2.25,0,0,0-1.95-1.12h-3v6.23a2.44,2.44,0,0,1-2.37,2.47,2.46,2.46,0,0,1-2.4-2.47V553.32a3,3,0,0,1,3.17-3.09h7.13a8.64,8.64,0,0,1,6,2.19,7.44,7.44,0,0,1,2.47,5.91c0,3.79-1.87,6.37-4.52,7.2l4.49,5.39A2.52,2.52,0,0,1,214.58,574.26Zm27-8.55a4.39,4.39,0,1,1,1.28-3.1A4.17,4.17,0,0,1,241.54,565.71ZM279,564.59a9.22,9.22,0,0,1-6.37,2.19h-5v5.67a2.43,2.43,0,0,1-2.36,2.47,2.46,2.46,0,0,1-2.4-2.47V553.32a3,3,0,0,1,3.16-3.09H273a8.63,8.63,0,0,1,6.05,2.26,7.74,7.74,0,0,1,2.47,6A7.84,7.84,0,0,1,279,564.59Zm25,10.26a2.24,2.24,0,0,1-2.19-1.49l-1.92-5.6h-9.7l-1.92,5.6a2.42,2.42,0,0,1-2.22,1.53,2.36,2.36,0,0,1-2.33-2.44,2,2,0,0,1,.14-.83l6.61-18.37a4.71,4.71,0,0,1,4.59-3.37,4.56,4.56,0,0,1,4.62,3.37l6.54,18.37a1.77,1.77,0,0,1,.14.8A2.37,2.37,0,0,1,304,574.85Zm27.13-8.66a8.27,8.27,0,0,1-2.85,6.47,11,11,0,0,1-14.4-.28,10.71,10.71,0,0,1-3.27-7.06,36.46,36.46,0,0,1,0-5.53,10.86,10.86,0,0,1,3.27-7.09,10.07,10.07,0,0,1,7.27-2.82,9.76,9.76,0,0,1,8.9,4.9,2.57,2.57,0,0,1,.39,1.39,2.26,2.26,0,0,1-4.21,1.15,5.52,5.52,0,0,0-5.08-2.92c-3.34,0-5.39,2.33-5.78,6a25.88,25.88,0,0,0,0,4.49c.39,3.51,2.54,5.91,5.78,5.91s5.29-1.91,5.29-4.38v-.83h-3.14a2.31,2.31,0,0,1-2.29-2.26,2.25,2.25,0,0,1,2.29-2.27h4.56a3.1,3.1,0,0,1,3.27,3.24Zm27.14-.87a10.81,10.81,0,0,1-21.57,0,36.46,36.46,0,0,1,0-5.53,10.67,10.67,0,0,1,3.34-7.06,10.35,10.35,0,0,1,7.41-2.85,10.5,10.5,0,0,1,7.41,2.89,10.36,10.36,0,0,1,3.41,7A39.25,39.25,0,0,1,358.25,565.32Zm26.57-1.08c-.45,6.44-4.17,10.54-11.55,10.54H368a3.23,3.23,0,0,1-3.44-3.37V553.57a3.15,3.15,0,0,1,3.44-3.34h5.32c7.27,0,11.1,4,11.52,10.26A27.53,27.53,0,0,1,384.82,564.24Zm21.36,10.54H394.63a3.28,3.28,0,0,1-3.44-3.44v-17.7a3.26,3.26,0,0,1,3.44-3.41h11.48a2.24,2.24,0,0,1,2.3,2.26,2.37,2.37,0,0,1-2.3,2.29H396v5.5h9.75a2.1,2.1,0,0,1,2.15,2.16,2.25,2.25,0,0,1-2.15,2.19H396v5.6h10.23a2.33,2.33,0,0,1,2.3,2.26A2.27,2.27,0,0,1,406.18,574.78Zm28.91-9.07a4.37,4.37,0,1,1,1.29-3.1A4.17,4.17,0,0,1,435.09,565.71Zm41.64-1.47c-.45,6.44-4.17,10.54-11.55,10.54h-5.32a3.23,3.23,0,0,1-3.45-3.37V553.57a3.15,3.15,0,0,1,3.45-3.34h5.32c7.27,0,11.1,4,11.51,10.26A26,26,0,0,1,476.73,564.24Zm11.13,8.21a2.37,2.37,0,0,1-2.36,2.47,2.46,2.46,0,0,1-2.4-2.47V552.52a2.43,2.43,0,0,1,2.4-2.43,2.36,2.36,0,0,1,2.36,2.43Zm22.75.63a10.11,10.11,0,0,1-6.82,2.12,13.76,13.76,0,0,1-8.55-2.47,2.75,2.75,0,0,1-1.29-2.15,2.37,2.37,0,0,1,2.4-2.44,2.89,2.89,0,0,1,1.77.66,9.77,9.77,0,0,0,5.85,1.74c2.68,0,4.35-1,4.35-2.71A2,2,0,0,0,507.1,566a16.89,16.89,0,0,0-4.21-1.22c-5.84-1.22-8.35-3.34-8.35-7.51a6.52,6.52,0,0,1,2.51-5.32,9.73,9.73,0,0,1,6.36-2c3.51,0,6,.66,7.58,2a2.28,2.28,0,0,1,.84,1.78,2.33,2.33,0,0,1-2.26,2.36,4.05,4.05,0,0,1-1.74-.49,9.68,9.68,0,0,0-4.31-1c-2.89,0-4.21,1.11-4.21,2.68s1.28,2.19,4.94,2.88c3.16.6,5.42,1.43,6.78,2.58a6.05,6.05,0,0,1,2.09,5A6.83,6.83,0,0,1,510.61,573.08Zm12.49-8.24c.25,3.47,2.37,5.77,5.71,5.77a5.24,5.24,0,0,0,4.94-3.06,2.31,2.31,0,0,1,2.08-1.39,2.35,2.35,0,0,1,2.33,2.22,3.58,3.58,0,0,1-.24,1.29,8.69,8.69,0,0,1-3.62,4.07,10.77,10.77,0,0,1-5.49,1.46,10.07,10.07,0,0,1-7.24-2.78,10.86,10.86,0,0,1-3.2-7.1,36.46,36.46,0,0,1,0-5.53,10.83,10.83,0,0,1,3.2-7.09,9.94,9.94,0,0,1,7.24-2.82,10.51,10.51,0,0,1,5.49,1.49,8.48,8.48,0,0,1,3.62,4,3.58,3.58,0,0,1,.24,1.29,2.35,2.35,0,0,1-2.33,2.22,2.39,2.39,0,0,1-2.08-1.39,5.24,5.24,0,0,0-4.94-3.06c-3.31,0-5.46,2.43-5.71,5.91A33.19,33.19,0,0,0,523.1,564.84Zm25.6,7.61a2.36,2.36,0,0,1-2.36,2.47,2.46,2.46,0,0,1-2.4-2.47V552.52a2.43,2.43,0,0,1,2.4-2.43,2.36,2.36,0,0,1,2.36,2.43Zm23.38-7.86a9.19,9.19,0,0,1-6.36,2.19h-5v5.67a2.44,2.44,0,0,1-2.37,2.47,2.46,2.46,0,0,1-2.4-2.47V553.32a3,3,0,0,1,3.17-3.09H566a8.61,8.61,0,0,1,6.05,2.26,7.71,7.71,0,0,1,2.47,6A7.81,7.81,0,0,1,572.08,564.59Zm22.54,10.19H583a2.66,2.66,0,0,1-2.79-2.78V552.52a2.44,2.44,0,0,1,2.4-2.43,2.36,2.36,0,0,1,2.37,2.43v17.6h9.63a2.47,2.47,0,0,1,2.4,2.37A2.31,2.31,0,0,1,594.62,574.78Zm11.83-2.33a2.37,2.37,0,0,1-2.36,2.47,2.46,2.46,0,0,1-2.4-2.47V552.52a2.43,2.43,0,0,1,2.4-2.43,2.36,2.36,0,0,1,2.36,2.43Zm28.42-1.18a3.44,3.44,0,0,1-3.44,3.65A3.79,3.79,0,0,1,628,572.8l-9.53-16.38h-.07c0,1.22.07,3.16.07,5.84v10.26a2.35,2.35,0,0,1-2.33,2.47,2.46,2.46,0,0,1-2.4-2.47v-18.4a3.7,3.7,0,0,1,3.79-4,3.74,3.74,0,0,1,3.41,2.05l9.29,16h.06c-.06-2.29-.1-4.13-.1-5.49V552.52a2.41,2.41,0,0,1,2.37-2.43,2.36,2.36,0,0,1,2.36,2.43Zm25.47,3.58a2.26,2.26,0,0,1-2.2-1.49l-1.91-5.6h-9.7l-1.92,5.6a2.42,2.42,0,0,1-2.22,1.53,2.36,2.36,0,0,1-2.33-2.44,2,2,0,0,1,.14-.83l6.61-18.37a4.7,4.7,0,0,1,4.59-3.37,4.56,4.56,0,0,1,4.62,3.37l6.54,18.37a1.77,1.77,0,0,1,.14.8A2.37,2.37,0,0,1,660.34,574.85Z"/><path class="cls-1" d="M133.45,555.2a.55.55,0,0,0-.56-.45.57.57,0,0,0-.59.45l-2.85,8.31h6.82Z"/><path class="cls-1" d="M193.4,641.14a2.69,2.69,0,0,1-2.87-2.81V623.45a2.63,2.63,0,0,1,2.87-2.78h4.44c6.06,0,9.25,3.31,9.59,8.55a21.73,21.73,0,0,1,0,3.13c-.37,5.37-3.47,8.79-9.62,8.79Zm10.09-11.31c-.2-3.51-2.06-5.28-5.56-5.28h-3.42v12.7h3.42c3.47,0,5.33-1.68,5.53-5A20.76,20.76,0,0,0,203.49,629.83Z"/><path class="cls-1" d="M246.94,620.67a1.87,1.87,0,0,1,1.91,1.88,2,2,0,0,1-1.91,1.92h-8.47v4.58h8.12a1.75,1.75,0,0,1,1.8,1.8,1.87,1.87,0,0,1-1.8,1.82h-8.12v4.67H247a1.94,1.94,0,0,1,1.91,1.88,1.89,1.89,0,0,1-1.91,1.92h-9.63a2.74,2.74,0,0,1-2.87-2.87V623.51a2.72,2.72,0,0,1,2.87-2.84Z"/><path class="cls-1" d="M275.46,626.5a5.44,5.44,0,0,1,2.08-4.44,8.14,8.14,0,0,1,5.31-1.68c2.93,0,5,.55,6.32,1.65a1.91,1.91,0,0,1,.69,1.48,1.94,1.94,0,0,1-1.88,2,3.46,3.46,0,0,1-1.45-.4,8.07,8.07,0,0,0-3.59-.82c-2.41,0-3.51.93-3.51,2.24s1.07,1.82,4.11,2.4c2.64.5,4.53,1.19,5.66,2.15a5,5,0,0,1,1.74,4.14,5.71,5.71,0,0,1-2.09,4.53,8.44,8.44,0,0,1-5.68,1.77,11.5,11.5,0,0,1-7.13-2.06,2.29,2.29,0,0,1-1.08-1.8,2,2,0,0,1,2-2,2.37,2.37,0,0,1,1.48.55,8.14,8.14,0,0,0,4.87,1.45c2.23,0,3.63-.84,3.63-2.26a1.64,1.64,0,0,0-1-1.57,14.66,14.66,0,0,0-3.51-1C277.54,631.74,275.46,630,275.46,626.5Z"/><path class="cls-1" d="M320.41,641.14a2.69,2.69,0,0,1-2.87-2.81V623.45a2.62,2.62,0,0,1,2.87-2.78h4.44c6,0,9.24,3.31,9.59,8.55a21.73,21.73,0,0,1,0,3.13c-.38,5.37-3.48,8.79-9.62,8.79Zm10.09-11.31c-.2-3.51-2.06-5.28-5.57-5.28h-3.42v12.7h3.42c3.48,0,5.34-1.68,5.54-5A20.76,20.76,0,0,0,330.5,629.83Z"/><path class="cls-1" d="M374,620.67a1.87,1.87,0,0,1,1.91,1.88,2,2,0,0,1-1.91,1.92h-8.47v4.58h8.12a1.75,1.75,0,0,1,1.79,1.8,1.87,1.87,0,0,1-1.79,1.82h-8.12v4.67H374a2,2,0,0,1,1.92,1.88,1.9,1.9,0,0,1-1.92,1.92h-9.62a2.74,2.74,0,0,1-2.87-2.87V623.51a2.72,2.72,0,0,1,2.87-2.84Z"/><path class="cls-1" d="M438.55,631.83a43,43,0,0,0,4.32-3.19,2.6,2.6,0,0,0,.95-2c0-1.25-.89-2.41-2.95-2.41a4.33,4.33,0,0,0-3.42,1.63,2.47,2.47,0,0,1-1.05.78,2,2,0,0,1-2.49-1.22,1.84,1.84,0,0,1,.26-1.74,8.26,8.26,0,0,1,6.61-3.24,7.3,7.3,0,0,1,5.19,1.74,5.67,5.67,0,0,1,1.86,4.35,6.06,6.06,0,0,1-1.11,3.47,18,18,0,0,1-4.37,3.83c-.21.12-.79.55-1.05.75a8.7,8.7,0,0,0-1,.79c-.78.63-1.51,1.27-1.6,1.85h7.63a2,2,0,0,1,2,2,1.92,1.92,0,0,1-2,1.94h-10a2.26,2.26,0,0,1-2.44-2.44C433.88,636.24,435.45,634,438.55,631.83Z"/><path class="cls-1" d="M477.79,639.25a8.16,8.16,0,0,1-2.43-5.62,31.73,31.73,0,0,1,0-5.34,8.28,8.28,0,0,1,2.46-5.62,8.55,8.55,0,0,1,11.34,0,8.37,8.37,0,0,1,2.49,5.62,31.74,31.74,0,0,1,0,5.34,8.35,8.35,0,0,1-2.49,5.62,8.59,8.59,0,0,1-11.37,0Zm9.89-6.2a33.29,33.29,0,0,0,0-4.26c-.15-2.81-1.74-4.5-4.18-4.5s-4,1.69-4.17,4.5a33.29,33.29,0,0,0,0,4.26c.2,2.87,1.74,4.55,4.17,4.55S487.53,635.86,487.68,633.05Z"/><path class="cls-1" d="M528.08,622.61v16.64a1.94,1.94,0,0,1-2,2,2,2,0,0,1-1.94-2V625.86l-2.93,1.65a2,2,0,0,1-2.7-.72,2.07,2.07,0,0,1,.79-2.7l5.74-3.22a1.88,1.88,0,0,1,1-.29A2,2,0,0,1,528.08,622.61Z"/><path class="cls-1" d="M560.08,630.53a4.38,4.38,0,0,1-2.79-4.41c0-3.51,2.87-5.57,7.63-5.57s7.68,2,7.68,5.51a4.66,4.66,0,0,1-2.75,4.47,4.93,4.93,0,0,1,3.22,4.93c0,3.56-2.9,5.94-8.12,5.94s-8.12-2.38-8.12-5.94A4.91,4.91,0,0,1,560.08,630.53Zm.72,4.64c0,1.62,1.36,2.6,4.18,2.6s4.2-1,4.2-2.6-1.51-2.67-4.26-2.67S560.8,633.51,560.8,635.17Zm.41-8.79c0,1.51,1.42,2.35,3.74,2.35s3.74-.87,3.74-2.38-1.25-2.26-3.71-2.26S561.21,625,561.21,626.38Z"/></g></g></svg>